<svg width="1674" height="967" viewBox="0 0 1674 967" fill="none" xmlns="http://www.w3.org/2000/svg">
<path d="M2.11631 444.477C2.11631 443.849 1.64256 443.34 1.05815 443.34C0.473752 443.34 0 443.849 0 444.477V737.763C0 738.391 0.473752 738.9 1.05815 738.9C1.64256 738.9 2.11631 738.391 2.11631 737.763V444.477Z" fill="#005496" fill-opacity="0.1"/>
<path d="M23.2794 455.844C23.2794 455.216 22.8056 454.708 22.2212 454.708C21.6368 454.708 21.1631 455.216 21.1631 455.844V749.131C21.1631 749.759 21.6368 750.267 22.2212 750.267C22.8056 750.267 23.2794 749.759 23.2794 749.131V455.844Z" fill="#005496" fill-opacity="0.1"/>
<path d="M44.4425 467.212C44.4425 466.584 43.9687 466.075 43.3843 466.075C42.7999 466.075 42.3262 466.584 42.3262 467.212V760.498C42.3262 761.126 42.7999 761.635 43.3843 761.635C43.9687 761.635 44.4425 761.126 44.4425 760.498V467.212Z" fill="#005496" fill-opacity="0.1"/>
<path d="M65.6056 478.58C65.6056 477.952 65.1318 477.443 64.5474 477.443C63.963 477.443 63.4893 477.952 63.4893 478.58V771.866C63.4893 772.494 63.963 773.003 64.5474 773.003C65.1318 773.003 65.6056 772.494 65.6056 771.866V478.58Z" fill="#005496" fill-opacity="0.1"/>
<path d="M86.7687 489.947C86.7687 489.319 86.2949 488.811 85.7105 488.811C85.1261 488.811 84.6523 489.319 84.6523 489.947V783.234C84.6523 783.861 85.1261 784.37 85.7105 784.37C86.2949 784.37 86.7687 783.861 86.7687 783.234V489.947Z" fill="#005496" fill-opacity="0.1"/>
<path d="M107.932 501.315C107.932 500.687 107.458 500.178 106.874 500.178C106.289 500.178 105.815 500.687 105.815 501.315V794.601C105.815 795.229 106.289 795.738 106.874 795.738C107.458 795.738 107.932 795.229 107.932 794.601V501.315Z" fill="#005496" fill-opacity="0.1"/>
<path d="M129.095 512.683C129.095 512.055 128.621 511.546 128.037 511.546C127.452 511.546 126.979 512.055 126.979 512.683V805.969C126.979 806.597 127.452 807.106 128.037 807.106C128.621 807.106 129.095 806.597 129.095 805.969V512.683Z" fill="#005496" fill-opacity="0.1"/>
<path d="M150.258 524.05C150.258 523.423 149.784 522.914 149.2 522.914C148.615 522.914 148.142 523.423 148.142 524.05V817.337C148.142 817.965 148.615 818.474 149.2 818.474C149.784 818.474 150.258 817.965 150.258 817.337V524.05Z" fill="#005496" fill-opacity="0.1"/>
<path d="M171.421 535.418C171.421 534.79 170.947 534.281 170.363 534.281C169.778 534.281 169.305 534.79 169.305 535.418V828.704C169.305 829.332 169.778 829.841 170.363 829.841C170.947 829.841 171.421 829.332 171.421 828.704V535.418Z" fill="#005496" fill-opacity="0.1"/>
<path d="M192.584 546.786C192.584 546.158 192.11 545.649 191.526 545.649C190.942 545.649 190.468 546.158 190.468 546.786V840.072C190.468 840.7 190.942 841.209 191.526 841.209C192.11 841.209 192.584 840.7 192.584 840.072V546.786Z" fill="#005496" fill-opacity="0.1"/>
<path d="M213.747 558.153C213.747 557.526 213.273 557.017 212.689 557.017C212.105 557.017 211.631 557.526 211.631 558.153V851.44C211.631 852.067 212.105 852.576 212.689 852.576C213.273 852.576 213.747 852.067 213.747 851.44V558.153Z" fill="#005496" fill-opacity="0.1"/>
<path d="M234.91 569.521C234.91 568.893 234.437 568.384 233.852 568.384C233.268 568.384 232.794 568.893 232.794 569.521V862.808C232.794 863.435 233.268 863.944 233.852 863.944C234.437 863.944 234.91 863.435 234.91 862.808V569.521Z" fill="#005496" fill-opacity="0.1"/>
<path d="M256.073 580.889C256.073 580.261 255.6 579.752 255.015 579.752C254.431 579.752 253.957 580.261 253.957 580.889V874.175C253.957 874.803 254.431 875.312 255.015 875.312C255.6 875.312 256.073 874.803 256.073 874.175V580.889Z" fill="#005496" fill-opacity="0.1"/>
<path d="M277.236 592.257C277.236 591.629 276.763 591.12 276.178 591.12C275.594 591.12 275.12 591.629 275.12 592.257V885.543C275.12 886.171 275.594 886.68 276.178 886.68C276.763 886.68 277.236 886.171 277.236 885.543V592.257Z" fill="#005496" fill-opacity="0.1"/>
<path d="M298.4 603.624C298.4 602.996 297.926 602.488 297.341 602.488C296.757 602.488 296.283 602.996 296.283 603.624V896.911C296.283 897.538 296.757 898.047 297.341 898.047C297.926 898.047 298.4 897.538 298.4 896.911V603.624Z" fill="#005496" fill-opacity="0.1"/>
<path d="M319.563 614.992C319.563 614.364 319.089 613.855 318.504 613.855C317.92 613.855 317.446 614.364 317.446 614.992V908.279C317.446 908.906 317.92 909.415 318.504 909.415C319.089 909.415 319.563 908.906 319.563 908.279V614.992Z" fill="#005496" fill-opacity="0.1"/>
<path d="M340.726 626.36C340.726 625.732 340.252 625.223 339.668 625.223C339.083 625.223 338.609 625.732 338.609 626.36V919.646C338.609 920.274 339.083 920.783 339.668 920.783C340.252 920.783 340.726 920.274 340.726 919.646V626.36Z" fill="#005496" fill-opacity="0.1"/>
<path d="M361.889 637.727C361.889 637.1 361.415 636.591 360.831 636.591C360.246 636.591 359.772 637.1 359.772 637.727V931.014C359.772 931.642 360.246 932.151 360.831 932.151C361.415 932.151 361.889 931.642 361.889 931.014V637.727Z" fill="#005496" fill-opacity="0.1"/>
<path d="M383.052 649.095C383.052 648.467 382.578 647.958 381.994 647.958C381.409 647.958 380.936 648.467 380.936 649.095V942.381C380.936 943.009 381.409 943.518 381.994 943.518C382.578 943.518 383.052 943.009 383.052 942.381V649.095Z" fill="#005496" fill-opacity="0.1"/>
<path d="M404.215 660.463C404.215 659.835 403.741 659.326 403.157 659.326C402.572 659.326 402.099 659.835 402.099 660.463V953.749C402.099 954.377 402.572 954.886 403.157 954.886C403.741 954.886 404.215 954.377 404.215 953.749V660.463Z" fill="#005496" fill-opacity="0.1"/>
<path d="M425.378 671.83C425.378 671.202 424.904 670.693 424.32 670.693C423.735 670.693 423.262 671.202 423.262 671.83V965.117C423.262 965.744 423.735 966.253 424.32 966.253C424.904 966.253 425.378 965.744 425.378 965.117V671.83Z" fill="#005496" fill-opacity="0.1"/>
<path d="M446.541 660.463C446.541 659.835 446.067 659.326 445.483 659.326C444.899 659.326 444.425 659.835 444.425 660.463V953.749C444.425 954.377 444.899 954.886 445.483 954.886C446.067 954.886 446.541 954.377 446.541 953.749V660.463Z" fill="#005496" fill-opacity="0.1"/>
<path d="M467.704 649.095C467.704 648.467 467.23 647.958 466.646 647.958C466.062 647.958 465.588 648.467 465.588 649.095V942.381C465.588 943.009 466.062 943.518 466.646 943.518C467.23 943.518 467.704 943.009 467.704 942.381V649.095Z" fill="#005496" fill-opacity="0.1"/>
<path d="M488.867 637.727C488.867 637.1 488.394 636.591 487.809 636.591C487.225 636.591 486.751 637.1 486.751 637.727V931.014C486.751 931.642 487.225 932.151 487.809 932.151C488.394 932.151 488.867 931.642 488.867 931.014V637.727Z" fill="#005496" fill-opacity="0.1"/>
<path d="M510.03 626.36C510.03 625.732 509.557 625.223 508.972 625.223C508.388 625.223 507.914 625.732 507.914 626.36V919.646C507.914 920.274 508.388 920.783 508.972 920.783C509.557 920.783 510.03 920.274 510.03 919.646V626.36Z" fill="#005496" fill-opacity="0.1"/>
<path d="M531.193 614.992C531.193 614.364 530.72 613.855 530.135 613.855C529.551 613.855 529.077 614.364 529.077 614.992V908.279C529.077 908.906 529.551 909.415 530.135 909.415C530.72 909.415 531.193 908.906 531.193 908.279V614.992Z" fill="#005496" fill-opacity="0.1"/>
<path d="M552.357 603.624C552.357 602.996 551.883 602.488 551.298 602.488C550.714 602.488 550.24 602.996 550.24 603.624V896.911C550.24 897.538 550.714 898.047 551.298 898.047C551.883 898.047 552.357 897.538 552.357 896.911V603.624Z" fill="#005496" fill-opacity="0.1"/>
<path d="M573.52 592.257C573.52 591.629 573.046 591.12 572.461 591.12C571.877 591.12 571.403 591.629 571.403 592.257V885.543C571.403 886.171 571.877 886.68 572.461 886.68C573.046 886.68 573.52 886.171 573.52 885.543V592.257Z" fill="#005496" fill-opacity="0.1"/>
<path d="M594.683 580.889C594.683 580.261 594.209 579.752 593.625 579.752C593.04 579.752 592.566 580.261 592.566 580.889V874.175C592.566 874.803 593.04 875.312 593.625 875.312C594.209 875.312 594.683 874.803 594.683 874.175V580.889Z" fill="#005496" fill-opacity="0.1"/>
<path d="M615.846 569.521C615.846 568.893 615.372 568.384 614.788 568.384C614.203 568.384 613.729 568.893 613.729 569.521V862.808C613.729 863.435 614.203 863.944 614.788 863.944C615.372 863.944 615.846 863.435 615.846 862.808V569.521Z" fill="#005496" fill-opacity="0.1"/>
<path d="M637.009 558.153C637.009 557.526 636.535 557.017 635.951 557.017C635.366 557.017 634.893 557.526 634.893 558.153V851.44C634.893 852.067 635.366 852.576 635.951 852.576C636.535 852.576 637.009 852.067 637.009 851.44V558.153Z" fill="#005496" fill-opacity="0.1"/>
<path d="M658.172 546.786C658.172 546.158 657.698 545.649 657.114 545.649C656.529 545.649 656.056 546.158 656.056 546.786V840.072C656.056 840.7 656.529 841.209 657.114 841.209C657.698 841.209 658.172 840.7 658.172 840.072V546.786Z" fill="#005496" fill-opacity="0.1"/>
<path d="M679.335 535.418C679.335 534.79 678.861 534.281 678.277 534.281C677.693 534.281 677.219 534.79 677.219 535.418V828.704C677.219 829.332 677.693 829.841 678.277 829.841C678.861 829.841 679.335 829.332 679.335 828.704V535.418Z" fill="#005496" fill-opacity="0.1"/>
<path d="M700.498 524.05C700.498 523.423 700.024 522.914 699.44 522.914C698.856 522.914 698.382 523.423 698.382 524.05V817.337C698.382 817.965 698.856 818.474 699.44 818.474C700.024 818.474 700.498 817.965 700.498 817.337V524.05Z" fill="#005496" fill-opacity="0.1"/>
<path d="M721.661 512.683C721.661 512.055 721.187 511.546 720.603 511.546C720.019 511.546 719.545 512.055 719.545 512.683V805.969C719.545 806.597 720.019 807.106 720.603 807.106C721.187 807.106 721.661 806.597 721.661 805.969V512.683Z" fill="#005496" fill-opacity="0.1"/>
<path d="M742.824 501.315C742.824 500.687 742.351 500.178 741.766 500.178C741.182 500.178 740.708 500.687 740.708 501.315V794.601C740.708 795.229 741.182 795.738 741.766 795.738C742.351 795.738 742.824 795.229 742.824 794.601V501.315Z" fill="#005496" fill-opacity="0.1"/>
<path d="M763.987 489.947C763.987 489.319 763.514 488.811 762.929 488.811C762.345 488.811 761.871 489.319 761.871 489.947V783.234C761.871 783.861 762.345 784.37 762.929 784.37C763.514 784.37 763.987 783.861 763.987 783.234V489.947Z" fill="#005496" fill-opacity="0.1"/>
<path d="M785.15 478.58C785.15 477.952 784.677 477.443 784.092 477.443C783.508 477.443 783.034 477.952 783.034 478.58V771.866C783.034 772.494 783.508 773.003 784.092 773.003C784.677 773.003 785.15 772.494 785.15 771.866V478.58Z" fill="#005496" fill-opacity="0.1"/>
<path d="M806.314 467.212C806.314 466.584 805.84 466.075 805.255 466.075C804.671 466.075 804.197 466.584 804.197 467.212V760.498C804.197 761.126 804.671 761.635 805.255 761.635C805.84 761.635 806.314 761.126 806.314 760.498V467.212Z" fill="#005496" fill-opacity="0.1"/>
<path d="M827.477 455.844C827.477 455.216 827.003 454.708 826.419 454.708C825.834 454.708 825.36 455.216 825.36 455.844V749.131C825.36 749.759 825.834 750.267 826.419 750.267C827.003 750.267 827.477 749.759 827.477 749.131V455.844Z" fill="#005496" fill-opacity="0.1"/>
<path d="M848.64 444.477C848.64 443.849 848.166 443.34 847.582 443.34C846.997 443.34 846.523 443.849 846.523 444.477V737.763C846.523 738.391 846.997 738.9 847.582 738.9C848.166 738.9 848.64 738.391 848.64 737.763V444.477Z" fill="#005496" fill-opacity="0.1"/>
<path d="M869.803 433.109C869.803 432.481 869.329 431.972 868.745 431.972C868.16 431.972 867.687 432.481 867.687 433.109V726.395C867.687 727.023 868.16 727.532 868.745 727.532C869.329 727.532 869.803 727.023 869.803 726.395V433.109Z" fill="#005496" fill-opacity="0.1"/>
<path d="M890.966 421.741C890.966 421.113 890.492 420.604 889.908 420.604C889.323 420.604 888.85 421.113 888.85 421.741V715.027C888.85 715.655 889.323 716.164 889.908 716.164C890.492 716.164 890.966 715.655 890.966 715.027V421.741Z" fill="#005496" fill-opacity="0.1"/>
<path d="M912.129 410.374C912.129 409.746 911.655 409.237 911.071 409.237C910.486 409.237 910.013 409.746 910.013 410.374V703.66C910.013 704.288 910.486 704.797 911.071 704.797C911.655 704.797 912.129 704.288 912.129 703.66V410.374Z" fill="#005496" fill-opacity="0.1"/>
<path d="M933.292 399.006C933.292 398.378 932.818 397.869 932.234 397.869C931.65 397.869 931.176 398.378 931.176 399.006V692.292C931.176 692.92 931.65 693.429 932.234 693.429C932.818 693.429 933.292 692.92 933.292 692.292V399.006Z" fill="#005496" fill-opacity="0.1"/>
<path d="M954.455 387.638C954.455 387.01 953.981 386.501 953.397 386.501C952.813 386.501 952.339 387.01 952.339 387.638V680.925C952.339 681.552 952.813 682.061 953.397 682.061C953.981 682.061 954.455 681.552 954.455 680.925V387.638Z" fill="#005496" fill-opacity="0.1"/>
<path d="M975.618 376.271C975.618 375.643 975.145 375.134 974.56 375.134C973.976 375.134 973.502 375.643 973.502 376.271V669.557C973.502 670.185 973.976 670.694 974.56 670.694C975.145 670.694 975.618 670.185 975.618 669.557V376.271Z" fill="#005496" fill-opacity="0.1"/>
<path d="M996.781 364.903C996.781 364.275 996.308 363.766 995.723 363.766C995.139 363.766 994.665 364.275 994.665 364.903V658.189C994.665 658.817 995.139 659.326 995.723 659.326C996.308 659.326 996.781 658.817 996.781 658.189V364.903Z" fill="#005496" fill-opacity="0.1"/>
<path d="M1017.94 353.535C1017.94 352.907 1017.47 352.398 1016.89 352.398C1016.3 352.398 1015.83 352.907 1015.83 353.535V646.822C1015.83 647.449 1016.3 647.958 1016.89 647.958C1017.47 647.958 1017.94 647.449 1017.94 646.822V353.535Z" fill="#005496" fill-opacity="0.1"/>
<path d="M1039.11 342.168C1039.11 341.54 1038.63 341.031 1038.05 341.031C1037.46 341.031 1036.99 341.54 1036.99 342.168V635.454C1036.99 636.082 1037.46 636.591 1038.05 636.591C1038.63 636.591 1039.11 636.082 1039.11 635.454V342.168Z" fill="#005496" fill-opacity="0.1"/>
<path d="M1060.27 330.8C1060.27 330.172 1059.8 329.663 1059.21 329.663C1058.63 329.663 1058.15 330.172 1058.15 330.8V624.086C1058.15 624.714 1058.63 625.223 1059.21 625.223C1059.8 625.223 1060.27 624.714 1060.27 624.086V330.8Z" fill="#005496" fill-opacity="0.1"/>
<path d="M1081.43 319.432C1081.43 318.804 1080.96 318.295 1080.38 318.295C1079.79 318.295 1079.32 318.804 1079.32 319.432V612.718C1079.32 613.346 1079.79 613.855 1080.38 613.855C1080.96 613.855 1081.43 613.346 1081.43 612.718V319.432Z" fill="#005496" fill-opacity="0.1"/>
<path d="M1102.6 308.065C1102.6 307.437 1102.12 306.928 1101.54 306.928C1100.95 306.928 1100.48 307.437 1100.48 308.065V601.351C1100.48 601.979 1100.95 602.488 1101.54 602.488C1102.12 602.488 1102.6 601.979 1102.6 601.351V308.065Z" fill="#005496" fill-opacity="0.1"/>
<path d="M1123.76 296.697C1123.76 296.069 1123.29 295.56 1122.7 295.56C1122.12 295.56 1121.64 296.069 1121.64 296.697V589.983C1121.64 590.611 1122.12 591.12 1122.7 591.12C1123.29 591.12 1123.76 590.611 1123.76 589.983V296.697Z" fill="#005496" fill-opacity="0.1"/>
<path d="M1144.92 285.329C1144.92 284.701 1144.45 284.192 1143.86 284.192C1143.28 284.192 1142.81 284.701 1142.81 285.329V578.615C1142.81 579.243 1143.28 579.752 1143.86 579.752C1144.45 579.752 1144.92 579.243 1144.92 578.615V285.329Z" fill="#005496" fill-opacity="0.1"/>
<path d="M1166.09 273.961C1166.09 273.334 1165.61 272.825 1165.03 272.825C1164.44 272.825 1163.97 273.334 1163.97 273.961V567.248C1163.97 567.876 1164.44 568.385 1165.03 568.385C1165.61 568.385 1166.09 567.876 1166.09 567.248V273.961Z" fill="#005496" fill-opacity="0.1"/>
<path d="M1187.25 262.594C1187.25 261.966 1186.78 261.457 1186.19 261.457C1185.61 261.457 1185.13 261.966 1185.13 262.594V555.88C1185.13 556.508 1185.61 557.017 1186.19 557.017C1186.78 557.017 1187.25 556.508 1187.25 555.88V262.594Z" fill="#005496" fill-opacity="0.1"/>
<path d="M1208.41 251.226C1208.41 250.598 1207.94 250.089 1207.35 250.089C1206.77 250.089 1206.3 250.598 1206.3 251.226V544.512C1206.3 545.14 1206.77 545.649 1207.35 545.649C1207.94 545.649 1208.41 545.14 1208.41 544.512V251.226Z" fill="#005496" fill-opacity="0.1"/>
<path d="M1229.58 239.858C1229.58 239.231 1229.1 238.722 1228.52 238.722C1227.93 238.722 1227.46 239.231 1227.46 239.858V533.145C1227.46 533.772 1227.93 534.281 1228.52 534.281C1229.1 534.281 1229.58 533.772 1229.58 533.145V239.858Z" fill="#005496" fill-opacity="0.1"/>
<path d="M1250.74 228.491C1250.74 227.863 1250.26 227.354 1249.68 227.354C1249.1 227.354 1248.62 227.863 1248.62 228.491V521.777C1248.62 522.405 1249.1 522.914 1249.68 522.914C1250.26 522.914 1250.74 522.405 1250.74 521.777V228.491Z" fill="#005496" fill-opacity="0.1"/>
<path d="M1271.9 217.123C1271.9 216.495 1271.43 215.986 1270.84 215.986C1270.26 215.986 1269.79 216.495 1269.79 217.123V510.409C1269.79 511.037 1270.26 511.546 1270.84 511.546C1271.43 511.546 1271.9 511.037 1271.9 510.409V217.123Z" fill="#005496" fill-opacity="0.1"/>
<path d="M1293.06 205.755C1293.06 205.127 1292.59 204.618 1292.01 204.618C1291.42 204.618 1290.95 205.127 1290.95 205.755V499.041C1290.95 499.669 1291.42 500.178 1292.01 500.178C1292.59 500.178 1293.06 499.669 1293.06 499.041V205.755Z" fill="#005496" fill-opacity="0.1"/>
<path d="M1314.23 194.388C1314.23 193.76 1313.75 193.251 1313.17 193.251C1312.59 193.251 1312.11 193.76 1312.11 194.388V487.674C1312.11 488.302 1312.59 488.811 1313.17 488.811C1313.75 488.811 1314.23 488.302 1314.23 487.674V194.388Z" fill="#005496" fill-opacity="0.1"/>
<path d="M1335.39 183.02C1335.39 182.392 1334.92 181.883 1334.33 181.883C1333.75 181.883 1333.27 182.392 1333.27 183.02V476.306C1333.27 476.934 1333.75 477.443 1334.33 477.443C1334.92 477.443 1335.39 476.934 1335.39 476.306V183.02Z" fill="#005496" fill-opacity="0.1"/>
<path d="M1356.55 171.652C1356.55 171.024 1356.08 170.515 1355.5 170.515C1354.91 170.515 1354.44 171.024 1354.44 171.652V464.939C1354.44 465.566 1354.91 466.075 1355.5 466.075C1356.08 466.075 1356.55 465.566 1356.55 464.939V171.652Z" fill="#005496" fill-opacity="0.1"/>
<path d="M1377.72 160.284C1377.72 159.657 1377.24 159.148 1376.66 159.148C1376.07 159.148 1375.6 159.657 1375.6 160.284V453.571C1375.6 454.199 1376.07 454.707 1376.66 454.707C1377.24 454.707 1377.72 454.199 1377.72 453.571V160.284Z" fill="#005496" fill-opacity="0.1"/>
<path d="M1398.88 148.917C1398.88 148.289 1398.41 147.78 1397.82 147.78C1397.24 147.78 1396.76 148.289 1396.76 148.917V442.203C1396.76 442.831 1397.24 443.34 1397.82 443.34C1398.41 443.34 1398.88 442.831 1398.88 442.203V148.917Z" fill="#005496" fill-opacity="0.1"/>
<path d="M1420.04 137.549C1420.04 136.921 1419.57 136.412 1418.98 136.412C1418.4 136.412 1417.93 136.921 1417.93 137.549V430.835C1417.93 431.463 1418.4 431.972 1418.98 431.972C1419.57 431.972 1420.04 431.463 1420.04 430.835V137.549Z" fill="#005496" fill-opacity="0.1"/>
<path d="M1441.21 126.181C1441.21 125.554 1440.73 125.045 1440.15 125.045C1439.56 125.045 1439.09 125.554 1439.09 126.181V419.468C1439.09 420.096 1439.56 420.605 1440.15 420.605C1440.73 420.605 1441.21 420.096 1441.21 419.468V126.181Z" fill="#005496" fill-opacity="0.1"/>
<path d="M1462.37 114.814C1462.37 114.186 1461.9 113.677 1461.31 113.677C1460.73 113.677 1460.25 114.186 1460.25 114.814V408.1C1460.25 408.728 1460.73 409.237 1461.31 409.237C1461.9 409.237 1462.37 408.728 1462.37 408.1V114.814Z" fill="#005496" fill-opacity="0.1"/>
<path d="M1483.53 103.446C1483.53 102.818 1483.06 102.309 1482.47 102.309C1481.89 102.309 1481.42 102.818 1481.42 103.446V396.732C1481.42 397.36 1481.89 397.869 1482.47 397.869C1483.06 397.869 1483.53 397.36 1483.53 396.732V103.446Z" fill="#005496" fill-opacity="0.1"/>
<path d="M1504.7 92.0782C1504.7 91.4504 1504.22 90.9414 1503.64 90.9414C1503.05 90.9414 1502.58 91.4504 1502.58 92.0782V385.365C1502.58 385.992 1503.05 386.501 1503.64 386.501C1504.22 386.501 1504.7 385.992 1504.7 385.365V92.0782Z" fill="#005496" fill-opacity="0.1"/>
<path d="M1525.86 80.7105C1525.86 80.0827 1525.38 79.5737 1524.8 79.5737C1524.22 79.5737 1523.74 80.0827 1523.74 80.7105V373.997C1523.74 374.625 1524.22 375.134 1524.8 375.134C1525.38 375.134 1525.86 374.625 1525.86 373.997V80.7105Z" fill="#005496" fill-opacity="0.1"/>
<path d="M1547.02 69.3429C1547.02 68.7151 1546.55 68.2062 1545.96 68.2062C1545.38 68.2062 1544.91 68.7151 1544.91 69.3429V362.629C1544.91 363.257 1545.38 363.766 1545.96 363.766C1546.55 363.766 1547.02 363.257 1547.02 362.629V69.3429Z" fill="#005496" fill-opacity="0.1"/>
<path d="M1568.18 57.9751C1568.18 57.3473 1567.71 56.8384 1567.13 56.8384C1566.54 56.8384 1566.07 57.3473 1566.07 57.9751V351.262C1566.07 351.889 1566.54 352.398 1567.13 352.398C1567.71 352.398 1568.18 351.889 1568.18 351.262V57.9751Z" fill="#005496" fill-opacity="0.1"/>
<path d="M1589.35 46.6075C1589.35 45.9797 1588.87 45.4707 1588.29 45.4707C1587.71 45.4707 1587.23 45.9797 1587.23 46.6075V339.894C1587.23 340.522 1587.71 341.031 1588.29 341.031C1588.87 341.031 1589.35 340.522 1589.35 339.894V46.6075Z" fill="#005496" fill-opacity="0.1"/>
<path d="M1610.51 35.2398C1610.51 34.612 1610.04 34.103 1609.45 34.103C1608.87 34.103 1608.39 34.612 1608.39 35.2398V328.526C1608.39 329.154 1608.87 329.663 1609.45 329.663C1610.04 329.663 1610.51 329.154 1610.51 328.526V35.2398Z" fill="#005496" fill-opacity="0.1"/>
<path d="M1631.67 23.8721C1631.67 23.2443 1631.2 22.7354 1630.62 22.7354C1630.03 22.7354 1629.56 23.2443 1629.56 23.8721V317.159C1629.56 317.786 1630.03 318.295 1630.62 318.295C1631.2 318.295 1631.67 317.786 1631.67 317.159V23.8721Z" fill="#005496" fill-opacity="0.1"/>
<path d="M1652.84 12.5044C1652.84 11.8766 1652.36 11.3677 1651.78 11.3677C1651.19 11.3677 1650.72 11.8766 1650.72 12.5044V305.791C1650.72 306.419 1651.19 306.928 1651.78 306.928C1652.36 306.928 1652.84 306.419 1652.84 305.791V12.5044Z" fill="#005496" fill-opacity="0.1"/>
<path d="M1674 1.13677C1674 0.508949 1673.53 0 1672.94 0C1672.36 0 1671.88 0.508949 1671.88 1.13677V294.423C1671.88 295.051 1672.36 295.56 1672.94 295.56C1673.53 295.56 1674 295.051 1674 294.423V1.13677Z" fill="#005496" fill-opacity="0.1"/>
</svg>
